<svg xmlns="http://www.w3.org/2000/svg" viewBox="0 0 100 270">
  <g fill="#000">
    <ellipse cx="50" cy="28" rx="18" ry="21"/>
    <path d="M32,22 C30,35 28,55 30,75 L26,75 C24,55 22,30 30,16 Z"/>
    <path d="M68,22 C70,35 72,55 70,75 L74,75 C76,55 78,30 70,16 Z"/>
    <rect x="43" y="48" width="14" height="11"/>
    <path d="M22,58 C28,54 39,53 50,53 C61,53 72,54 78,58 L82,180 L18,180 Z"/>
    <path d="M68,65 L72,80 L82,78 L80,60 Z"/>
    <path d="M22,65 L14,175 L23,177 L30,70 Z"/>
    <path d="M78,65 L86,175 L77,177 L70,70 Z"/>
    <rect x="24" y="178" width="20" height="88" rx="5"/>
    <rect x="56" y="178" width="20" height="88" rx="5"/>
  </g>
</svg>
