<svg xmlns="http://www.w3.org/2000/svg" viewBox="0 0 100 250">
  <g fill="#000">
    <ellipse cx="50" cy="30" rx="18" ry="20"/>
    <path d="M30,24 C28,40 28,60 30,78 L26,78 C22,60 22,36 28,18 Z"/>
    <path d="M70,24 C72,40 72,60 70,78 L74,78 C78,60 78,36 72,18 Z"/>
    <rect x="43" y="49" width="14" height="11"/>
    <path d="M22,59 C28,56 39,55 50,55 C61,55 72,56 78,59 L84,172 L16,172 Z"/>
    <path d="M22,69 L12,166 L21,168 L30,74 Z"/>
    <path d="M78,69 L88,166 L79,168 L70,74 Z"/>
    <rect x="24" y="170" width="19" height="76" rx="5"/>
    <rect x="57" y="170" width="19" height="76" rx="5"/>
  </g>
</svg>
